<svg xmlns="http://www.w3.org/2000/svg" data-name="Layer 1" viewBox="0 0 24 30" x="0px" y="0px"><title>rounded</title><path d="M20.67816,11.47632l-.79492-1.29321a1.0003,1.0003,0,0,1-.14764-.55127l.04174-1.51746a.99984.99984,0,0,0-.52362-.90686l-1.33508-.72266a.99969.99969,0,0,1-.40344-.40356l-.72266-1.335a.99986.99986,0,0,0-.87927-.524l-.02765.00037L14.3681,4.2644l-.02771.00037A.99928.99928,0,0,1,13.817,4.1167l-1.29334-.79492a1.00056,1.00056,0,0,0-1.04724,0L10.183,4.1167a.99913.99913,0,0,1-.52343.14807L9.6319,4.2644,8.11438,4.22266l-.02765-.00037a.99986.99986,0,0,0-.87927.524L6.4848,6.0813a.99969.99969,0,0,1-.40344.40356l-1.33508.72266a.99984.99984,0,0,0-.52362.90686L4.2644,9.63184a1.0003,1.0003,0,0,1-.14764.55127l-.79492,1.29321a1.00024,1.00024,0,0,0,0,1.04736l.79492,1.29321a1.0003,1.0003,0,0,1,.14764.55127l-.04174,1.51746a.99984.99984,0,0,0,.52362.90686l1.33508.72266a.99969.99969,0,0,1,.40344.40356l.72266,1.335a.99986.99986,0,0,0,.87927.524l.02765-.00037L9.6319,19.7356l.02771-.00037a.99928.99928,0,0,1,.52343.14807l1.29334.79492a1.00056,1.00056,0,0,0,1.04724,0L13.817,19.8833a.99913.99913,0,0,1,.52343-.14807l.02771.00037,1.51752.04174.02765.00037a.99986.99986,0,0,0,.87927-.524l.72266-1.335a.99969.99969,0,0,1,.40344-.40356l1.33508-.72266a.99984.99984,0,0,0,.52362-.90686l-.04174-1.51746a1.0003,1.0003,0,0,1,.14764-.55127l.79492-1.29321A1.00024,1.00024,0,0,0,20.67816,11.47632ZM15.78125,10.625l-4,5a1.00194,1.00194,0,0,1-.72559.373C11.03711,15.999,11.01855,16,11,16a.99686.99686,0,0,1-.707-.293l-2-2A.99989.99989,0,0,1,9.707,12.293l1.21,1.21L14.21875,9.375a1.00049,1.00049,0,0,1,1.5625,1.25Z"/><text x="0" y="39" fill="#000000" font-size="5px" font-weight="bold" font-family="'Helvetica Neue', Helvetica, Arial-Unicode, Arial, Sans-serif">Created by Sophia</text><text x="0" y="44" fill="#000000" font-size="5px" font-weight="bold" font-family="'Helvetica Neue', Helvetica, Arial-Unicode, Arial, Sans-serif">from the Noun Project</text></svg>